<?xml version="1.0" encoding="UTF-8" standalone="no"?>
<!-- Created with Inkscape (http://www.inkscape.org/) -->

<svg
   xmlns:dc="http://purl.org/dc/elements/1.1/"
   xmlns:cc="http://creativecommons.org/ns#"
   xmlns:rdf="http://www.w3.org/1999/02/22-rdf-syntax-ns#"
   xmlns:svg="http://www.w3.org/2000/svg"
   xmlns="http://www.w3.org/2000/svg"
   xmlns:sodipodi="http://sodipodi.sourceforge.net/DTD/sodipodi-0.dtd"
   xmlns:inkscape="http://www.inkscape.org/namespaces/inkscape"
   width="172"
   height="36"
   id="svg4400"
   version="1.1"
   inkscape:version="0.48.4 r9939"
   sodipodi:docname="maindeck.svg">
  <defs
     id="defs4402" />
  <sodipodi:namedview
     id="base"
     pagecolor="#ffffff"
     bordercolor="#666666"
     borderopacity="1.0"
     inkscape:pageopacity="0.0"
     inkscape:pageshadow="2"
     inkscape:zoom="22.627417"
     inkscape:cx="92.745399"
     inkscape:cy="11.927955"
     inkscape:document-units="px"
     inkscape:current-layer="layer1"
     showgrid="false"
     inkscape:window-width="1822"
     inkscape:window-height="825"
     inkscape:window-x="91"
     inkscape:window-y="213"
     inkscape:window-maximized="0">
    <inkscape:grid
       type="xygrid"
       id="grid4431"
       empspacing="4"
       visible="true"
       enabled="true"
       snapvisiblegridlinesonly="true"
       spacingx="1px"
       spacingy="1px" />
  </sodipodi:namedview>
  <metadata
     id="metadata4405">
    <rdf:RDF>
      <cc:Work
         rdf:about="">
        <dc:format>image/svg+xml</dc:format>
        <dc:type
           rdf:resource="http://purl.org/dc/dcmitype/StillImage" />
        <dc:title />
      </cc:Work>
    </rdf:RDF>
  </metadata>
  <g
     inkscape:label="Layer 1"
     inkscape:groupmode="layer"
     id="layer1"
     transform="translate(0,-1016.3622)">
    <path
       style="fill:#f6f6f6;fill-opacity:1;stroke:none"
       d="m 127,1040.3622 c 0.9697,0 43,0 43,0 -4.8485,2.9091 -9,6 -13,10 0,0 -152,0 -153,0 -1,0 -1,-2 0,-2 1,0 2,0 3,0 1,0 3,-4 5,-4 2,0 14,0 17,0 3,0 6.000329,-2 3,-2 -3.000329,0 -12.080153,0 -13,0 -0.919847,0 -1,-2 0,-2 1,0 16,0 19,0 3,0 6,-2 3,-2 -3,0 -8,0 -9,0 -1,0 -1,-2 0,-2 1,0 15,0 18,0 3,0 6,-2 3,-2 -3,0 -7,0 -8,0 -1,0 -1,-2 0,-2 1,0 10,0 13,0 3,0 6,-2 3,-2 -3,0 -4,0 -5,0 -1,0 -1,-2 0,-2 1,0 15,0 16,0 1,0 1.030305,-2 2,-2 0.969695,0 3,0 3,0 0,0 0.0303,-2 1,-2 0.969696,0 3,0 3,0 0,0 1,-6 2,-6 1,0 2,0 3,0 1,0 1,8 1,8 0,0 1.0303,0 2,0 0.96969,0 2.0303,2 3,2 0.96969,0 6,0 8,0 2,0 6.0303,1 7,1 0.96971,0 0.96971,1 0,1 -0.9697,0 -1.03031,0 -2,0 -0.96971,0 -0.96971,2 0,2 0.96969,0 5.06061,0 7,0 1.93939,0 6.03029,1 7,1 0.96968,0 0.96968,1 0,1 -0.96971,0 -2.0303,0 -3,0 -0.9697,0 -0.9697,2 0,2 0.96969,0 5.06061,0 7,0 1.93939,0 6.03029,1 7,1 0.96971,10e-5 0.96969,1 0,1 -0.9697,0 -2.03031,0 -3,0 -0.96969,0 -0.96972,2 0,2 z"
       id="path3233-1-8-6-8-3-1-2"
       inkscape:connector-curvature="0"
       sodipodi:nodetypes="zcczzzzzzzzzzzzzzzzzzzzzzczczzczzzzzzzzzzzzzzzzz" />
    <g
       id="g4433">
      <path
         sodipodi:nodetypes="ccccc"
         inkscape:connector-curvature="0"
         id="path4536-8-4-4-8-6-7-5-6-8-8-4"
         d="m 253.57929,436.37586 0,-70.8662 35.6832,35.8662 35.18309,-35.8662 0.24994,71.2993"
         style="fill:none;stroke:#000000;stroke-width:10.62992096;stroke-linecap:round;stroke-linejoin:round;stroke-miterlimit:4;stroke-opacity:1;stroke-dasharray:none" />
      <path
         sodipodi:nodetypes="csssccccc"
         inkscape:connector-curvature="0"
         id="path4538-2-0-2-8-8-42-0-5-9-4-2"
         d="m 351.27026,436.80896 c 0,0 0.1564,-45.6006 0,-53.1496 -0.1564,-7.549 8.9364,-17.7165 17.7166,-17.7165 8.7801,0 26.653,0 35.433,0 8.7801,0 17.5602,10.1676 17.7166,17.7166 0.1563,7.549 0,17.7165 0,17.7165 l -70.8662,0 70.8662,0 -10e-5,35.433"
         style="fill:none;stroke:#000000;stroke-width:10.62992096;stroke-linecap:round;stroke-linejoin:round;stroke-miterlimit:4;stroke-opacity:1;stroke-dasharray:none" />
      <path
         sodipodi:nodetypes="csssscc"
         inkscape:connector-curvature="0"
         id="path4546-3-3-7-4-7-7-8-0-3-9-3"
         d="m 581.58524,365.94296 c 0,0 44.2913,0 53.1496,0 8.8583,0 17.7165,6.1153 17.7165,17.7165 0,11.6011 0,26.5748 0,35.4331 0,8.8583 -8.8582,17.7165 -17.7165,17.7165 -8.8583,0 -53.1496,0 -53.1496,0 z"
         style="fill:none;stroke:#000000;stroke-width:10.62992096;stroke-linecap:round;stroke-linejoin:round;stroke-miterlimit:4;stroke-opacity:1;stroke-dasharray:none" />
      <path
         sodipodi:nodetypes="ccccccc"
         inkscape:connector-curvature="0"
         id="path4548-5-6-3-5-6-9-6-9-4-6-2"
         d="m 749.89227,365.94296 -70.86604,-1e-4 -6e-5,35.4332 35.4331,0 -35.4331,0 6e-5,35.4329 70.86604,10e-5"
         style="fill:none;stroke:#000000;stroke-width:10.62992096;stroke-linecap:round;stroke-linejoin:round;stroke-miterlimit:4;stroke-opacity:1;stroke-dasharray:none" />
      <path
         sodipodi:nodetypes="cssssc"
         inkscape:connector-curvature="0"
         id="path4550-9-1-7-5-1-31-0-0-4-3-2"
         d="m 838.47504,365.94286 c 0,0 -44.2267,0 -53.1496,0 -8.9229,0 -17.71649,8.8583 -17.71649,17.7165 0,8.8583 0,26.5748 0,35.4331 0,8.8583 8.85819,17.7165 17.71649,17.7165 8.8583,0 53.1496,0 53.1496,0"
         style="fill:none;stroke:#000000;stroke-width:10.62992096;stroke-linecap:round;stroke-linejoin:round;stroke-miterlimit:4;stroke-opacity:1;stroke-dasharray:none" />
      <path
         sodipodi:nodetypes="cccccc"
         inkscape:connector-curvature="0"
         id="path4552-8-5-2-1-8-9-2-0-6-7-1"
         d="m 865.04979,365.94286 0,70.8661 0,-35.433 70.86619,-35.4331 -53.1496,26.5749 53.1496,44.2912"
         style="fill:none;stroke:#000000;stroke-width:10.62992096;stroke-linecap:round;stroke-linejoin:round;stroke-miterlimit:4;stroke-opacity:1;stroke-dasharray:none" />
      <path
         sodipodi:nodetypes="cccc"
         inkscape:connector-curvature="0"
         id="path4702-7-9-8-4-6-0-8-6"
         d="m 475.28586,436.80896 2.1e-4,-70.8661 70.86615,70.8662 0,-70.8662"
         style="fill:none;stroke:#000000;stroke-width:10.62992096;stroke-linecap:round;stroke-linejoin:round;stroke-miterlimit:4;stroke-opacity:1;stroke-dasharray:none" />
      <path
         sodipodi:nodetypes="cc"
         inkscape:connector-curvature="0"
         id="path4377-1-6-8-8"
         d="m 449.06486,366.66946 -0.3536,70.1395"
         style="fill:none;stroke:#000000;stroke-width:10.62992096;stroke-linecap:round;stroke-linejoin:round;stroke-miterlimit:4;stroke-opacity:1;stroke-dasharray:none" />
    </g>
    <g
       id="g4998"
       transform="matrix(0.10635674,0,0,0.10635674,79.350309,935.58461)"
       style="fill:none;stroke:#3f3f3f;stroke-opacity:1">
      <path
         sodipodi:nodetypes="ccccc"
         inkscape:connector-curvature="0"
         id="path4536-8-4-4-8-6-7-5-6-8-8-4-9"
         d="m -299.64574,1049.4691 0,-70.86624 35.6832,35.86624 35.18309,-35.86624 0.24994,71.29934"
         style="fill:none;stroke:#3f3f3f;stroke-width:10.62992096;stroke-linecap:round;stroke-linejoin:round;stroke-miterlimit:4;stroke-opacity:1;stroke-dasharray:none" />
      <path
         sodipodi:nodetypes="csssccccc"
         inkscape:connector-curvature="0"
         id="path4538-2-0-2-8-8-42-0-5-9-4-2-8"
         d="m -201.95477,1049.9022 c 0,0 0.1564,-45.6006 0,-53.14964 -0.1564,-7.549 8.9364,-17.7165 17.7166,-17.7165 8.7801,0 26.653,0 35.433,0 8.7801,0 17.5602,10.1676 17.7166,17.7166 0.1563,7.54904 0,17.71654 0,17.71654 l -70.8662,0 70.8662,0 -1e-4,35.433"
         style="fill:none;stroke:#3f3f3f;stroke-width:10.62992096;stroke-linecap:round;stroke-linejoin:round;stroke-miterlimit:4;stroke-opacity:1;stroke-dasharray:none" />
      <path
         sodipodi:nodetypes="csssscc"
         inkscape:connector-curvature="0"
         id="path4546-3-3-7-4-7-7-8-0-3-9-3-2"
         d="m 28.36021,979.03616 c 0,0 44.2913,0 53.1496,0 8.8583,0 17.7165,6.1153 17.7165,17.7165 0,11.60114 0,26.57484 0,35.43314 0,8.8583 -8.8582,17.7165 -17.7165,17.7165 -8.8583,0 -53.1496,0 -53.1496,0 z"
         style="fill:none;stroke:#3f3f3f;stroke-width:10.62992096;stroke-linecap:round;stroke-linejoin:round;stroke-miterlimit:4;stroke-opacity:1;stroke-dasharray:none" />
      <path
         sodipodi:nodetypes="ccccccc"
         inkscape:connector-curvature="0"
         id="path4548-5-6-3-5-6-9-6-9-4-6-2-4"
         d="m 196.66724,979.03616 -70.86604,-10e-5 -6e-5,35.43324 35.4331,0 -35.4331,0 6e-5,35.4329 70.86604,10e-5"
         style="fill:none;stroke:#3f3f3f;stroke-width:10.62992096;stroke-linecap:round;stroke-linejoin:round;stroke-miterlimit:4;stroke-opacity:1;stroke-dasharray:none" />
      <path
         sodipodi:nodetypes="cssssc"
         inkscape:connector-curvature="0"
         id="path4550-9-1-7-5-1-31-0-0-4-3-2-5"
         d="m 285.25001,979.03606 c 0,0 -44.2267,0 -53.1496,0 -8.9229,0 -17.71649,8.8583 -17.71649,17.7165 0,8.85834 0,26.57484 0,35.43314 0,8.8583 8.85819,17.7165 17.71649,17.7165 8.8583,0 53.1496,0 53.1496,0"
         style="fill:none;stroke:#3f3f3f;stroke-width:10.62992096;stroke-linecap:round;stroke-linejoin:round;stroke-miterlimit:4;stroke-opacity:1;stroke-dasharray:none" />
      <path
         sodipodi:nodetypes="cccccc"
         inkscape:connector-curvature="0"
         id="path4552-8-5-2-1-8-9-2-0-6-7-1-2"
         d="m 311.82476,979.03606 0,70.86614 0,-35.433 70.8662,-35.43314 -53.14957,26.57494 53.14957,44.2912"
         style="fill:none;stroke:#3f3f3f;stroke-width:10.62992096;stroke-linecap:round;stroke-linejoin:round;stroke-miterlimit:4;stroke-opacity:1;stroke-dasharray:none" />
      <path
         sodipodi:nodetypes="cccc"
         inkscape:connector-curvature="0"
         id="path4702-7-9-8-4-6-0-8-6-9"
         d="m -77.93917,1049.9022 2.1e-4,-70.86614 70.86615,70.86624 0,-70.86624"
         style="fill:none;stroke:#3f3f3f;stroke-width:10.62992096;stroke-linecap:round;stroke-linejoin:round;stroke-miterlimit:4;stroke-opacity:1;stroke-dasharray:none" />
      <path
         sodipodi:nodetypes="cc"
         inkscape:connector-curvature="0"
         id="path4377-1-6-8-8-9"
         d="m -104.16017,979.76266 -0.3536,70.13954"
         style="fill:none;stroke:#3f3f3f;stroke-width:10.62992096;stroke-linecap:round;stroke-linejoin:round;stroke-miterlimit:4;stroke-opacity:1;stroke-dasharray:none" />
    </g>
  </g>
</svg>
